<svg width="21" height="28" viewBox="0 0 21 28" fill="none" xmlns="http://www.w3.org/2000/svg">
<path fill-rule="evenodd" clip-rule="evenodd" d="M10.9375 0.800049C3.73257 0.800049 0.0999756 5.96555 0.0999756 10.273C0.0999756 12.8809 1.08753 15.2017 3.20538 16.0655C3.55272 16.2075 3.86375 16.0705 3.96441 15.686C4.03453 15.4196 4.20037 14.748 4.27379 14.4683C4.37527 14.0879 4.33567 13.9551 4.05516 13.6235C3.44464 12.9032 3.0544 11.9709 3.0544 10.6501C3.0544 6.81698 5.9222 3.38652 10.5209 3.38652C14.5933 3.38652 16.8307 5.87561 16.8307 9.198C16.8307 13.5707 14.8952 17.261 12.0233 17.261C10.4368 17.261 9.24954 15.9484 9.62988 14.3396C10.0853 12.4189 10.9689 10.3448 10.9689 8.95876C10.9689 7.71792 10.3023 6.68251 8.92365 6.68251C7.30165 6.68251 5.99893 8.35978 5.99893 10.6072C5.99893 12.0386 6.4824 13.0072 6.4824 13.0072C6.4824 13.0072 4.82244 20.0389 4.53203 21.2707C3.95286 23.7235 4.4454 26.7299 4.48665 27.0335C4.5114 27.2133 4.74241 27.2562 4.84719 27.1193C4.99652 26.9246 6.92791 24.5394 7.58463 22.1567C7.77026 21.4827 8.65139 17.9887 8.65139 17.9887C9.17776 18.9936 10.7181 19.8788 12.3558 19.8788C17.2309 19.8788 20.5376 15.4344 20.5376 9.48513C20.5376 4.98873 16.7284 0.800049 10.9375 0.800049Z" fill="white"/>
</svg>
