<svg width="55" height="38" viewBox="0 0 55 38" fill="none" xmlns="http://www.w3.org/2000/svg">
<path d="M11.6146 0.97754H38.5408M11.6146 36.9776H38.9759M26.5845 30.8641H34.7497M28.6976 22.936H36.8628M27.9402 14.9382H36.1055M26.5845 7.29145H34.7497M43.7812 3.92455L46.7059 3.92455M43.1848 34.0311H46.706M17.424 36.9632C18.6105 37.0582 19.7941 36.6627 20.9039 35.8006C22.0137 34.9384 23.0268 33.6274 23.8823 31.946C24.7378 30.2647 25.4181 28.2478 25.8825 26.0163C26.3468 23.7848 26.5856 21.3848 26.5845 18.9602C26.5834 16.5357 26.3424 14.1366 25.876 11.9069C25.4096 9.67722 24.7273 7.66292 23.8703 5.9849C23.0132 4.30688 21.9989 2.99972 20.8884 2.14187C19.7778 1.28401 18.5938 0.893147 17.4074 0.992728M31.6775 36.9632C32.8639 37.0582 34.0476 36.6627 35.1574 35.8006C36.2672 34.9384 37.2802 33.6274 38.1357 31.946C38.9913 30.2647 39.6716 28.2478 40.1359 26.0163C40.6003 23.7848 40.8391 21.3848 40.838 18.9602C40.8368 16.5357 40.5958 14.1366 40.1294 11.9069C39.663 9.67722 38.9808 7.66292 38.1237 5.9849C37.2667 4.30688 36.2524 2.99972 35.1418 2.14187C34.0312 1.28401 32.8472 0.893147 31.6608 0.992728M38.1954 36.9632C39.3819 37.0582 40.5655 36.6627 41.6753 35.8006C42.7851 34.9384 43.7981 33.6274 44.6536 31.946C45.5092 30.2647 46.1895 28.2478 46.6539 26.0163C47.1182 23.7848 47.357 21.3848 47.3559 18.9602C47.3547 16.5357 47.1137 14.1366 46.6473 11.9069C46.1809 9.67722 45.4987 7.66292 44.6416 5.9849C43.7846 4.30688 42.7703 2.99972 41.6597 2.14187C40.5491 1.28401 39.3651 0.893147 38.1787 0.992728M46.0591 34.0195C47.0514 34.0989 48.0413 33.7682 48.9694 33.0472C49.8975 32.3262 50.7447 31.2298 51.4602 29.8237C52.1757 28.4175 52.7447 26.7308 53.133 24.8646C53.5213 22.9984 53.721 20.9912 53.7201 18.9636C53.7191 16.9359 53.5176 14.9295 53.1275 13.0648C52.7375 11.2001 52.1669 9.51557 51.4502 8.11223C50.7334 6.7089 49.8852 5.61571 48.9564 4.89829C48.0276 4.18086 47.0374 3.85398 46.0452 3.93726M19.3503 18.9773C19.3503 28.9182 15.4036 36.977 10.5352 36.977C5.66674 36.977 1.72009 28.9182 1.72009 18.9773C1.72009 9.03629 5.66674 0.97754 10.5352 0.97754C15.4036 0.97754 19.3503 9.03629 19.3503 18.9773ZM15.2676 18.9781C15.2676 25.2382 13.1488 30.3131 10.5351 30.3131C7.92151 30.3131 5.80273 25.2382 5.80273 18.9781C5.80273 12.7179 7.92151 7.64307 10.5351 7.64307C13.1488 7.64307 15.2676 12.7179 15.2676 18.9781Z" stroke="black" stroke-width="1.5"/>
</svg>
