<svg width="28" height="28" viewBox="0 0 28 28" fill="none" xmlns="http://www.w3.org/2000/svg">
<path d="M14 3.17841C17.5245 3.17841 17.942 3.19188 19.3339 3.25539C20.6209 3.31407 21.3198 3.52911 21.785 3.70988C22.4011 3.94934 22.8408 4.23537 23.3027 4.69726C23.7646 5.15919 24.0507 5.59891 24.2901 6.21505C24.4709 6.68018 24.686 7.37911 24.7446 8.66609C24.8081 10.058 24.8216 10.4755 24.8216 14C24.8216 17.5245 24.8081 17.942 24.7446 19.3339C24.686 20.6209 24.4709 21.3198 24.2901 21.785C24.0507 22.4011 23.7646 22.8408 23.3028 23.3027C22.8408 23.7646 22.4011 24.0507 21.785 24.2901C21.3198 24.4709 20.6209 24.6859 19.3339 24.7446C17.9422 24.8081 17.5248 24.8216 14 24.8216C10.4752 24.8216 10.0578 24.8081 8.66605 24.7446C7.37907 24.6859 6.68014 24.4709 6.21501 24.2901C5.59886 24.0507 5.15914 23.7646 4.69726 23.3027C4.23538 22.8408 3.94929 22.4011 3.70983 21.785C3.52906 21.3198 3.31402 20.6209 3.25533 19.3339C3.19183 17.942 3.17836 17.5245 3.17836 14C3.17836 10.4755 3.19183 10.058 3.25533 8.66609C3.31402 7.37911 3.52906 6.68018 3.70983 6.21505C3.94929 5.59891 4.23532 5.15919 4.69726 4.69731C5.15914 4.23537 5.59886 3.94934 6.21501 3.70988C6.68014 3.52911 7.37907 3.31407 8.66605 3.25539C10.0579 3.19188 10.4754 3.17841 14 3.17841ZM14 0.800049C10.4151 0.800049 9.96556 0.815244 8.55764 0.879483C7.15266 0.943565 6.1931 1.16673 5.35349 1.493C4.48547 1.83034 3.74934 2.28169 3.01546 3.01551C2.28163 3.74939 1.83028 4.48552 1.493 5.35353C1.16667 6.19315 0.943504 7.1527 0.879422 8.55768C0.815183 9.96559 0.799988 10.4151 0.799988 14C0.799988 17.5849 0.815183 18.0344 0.879422 19.4423C0.943504 20.8473 1.16667 21.8069 1.493 22.6465C1.83028 23.5145 2.28163 24.2506 3.01546 24.9845C3.74934 25.7183 4.48547 26.1697 5.35349 26.507C6.1931 26.8333 7.15266 27.0564 8.55764 27.1205C9.96556 27.1848 10.4151 27.2 14 27.2C17.5849 27.2 18.0344 27.1848 19.4423 27.1205C20.8473 27.0564 21.8069 26.8333 22.6465 26.507C23.5145 26.1697 24.2506 25.7183 24.9845 24.9845C25.7183 24.2506 26.1697 23.5145 26.507 22.6465C26.8333 21.8069 27.0565 20.8473 27.1206 19.4423C27.1848 18.0344 27.2 17.5849 27.2 14C27.2 10.4151 27.1848 9.96559 27.1206 8.55768C27.0565 7.1527 26.8333 6.19315 26.507 5.35353C26.1697 4.48552 25.7183 3.74939 24.9845 3.01551C24.2506 2.28169 23.5145 1.83034 22.6465 1.493C21.8069 1.16673 20.8473 0.943565 19.4423 0.879483C18.0344 0.815244 17.5849 0.800049 14 0.800049Z" fill="white"/>
<path d="M14.0061 7.22778C10.2625 7.22778 7.22772 10.2625 7.22772 14.0061C7.22772 17.7497 10.2625 20.7845 14.0061 20.7845C17.7497 20.7845 20.7845 17.7497 20.7845 14.0061C20.7845 10.2625 17.7497 7.22778 14.0061 7.22778ZM14.0061 18.4061C11.576 18.4061 9.6061 16.4362 9.6061 14.0061C9.6061 11.5761 11.576 9.60615 14.0061 9.60615C16.4362 9.60615 18.4061 11.5761 18.4061 14.0061C18.4061 16.4362 16.4362 18.4061 14.0061 18.4061Z" fill="white"/>
<path d="M22.6358 6.95585C22.6358 7.83063 21.9266 8.53983 21.0518 8.53983C20.177 8.53983 19.4678 7.83063 19.4678 6.95585C19.4678 6.08103 20.177 5.37183 21.0518 5.37183C21.9266 5.37183 22.6358 6.08103 22.6358 6.95585Z" fill="white"/>
</svg>
