<svg width="51" height="49" viewBox="0 0 51 49" fill="none" xmlns="http://www.w3.org/2000/svg">
<path d="M5.85444 33.0635L0.942922 13.0536C-0.512342 6.86874 8.21924 4.68584 9.67451 10.8707L11.8574 19.2385L10.2202 8.14209C9.4926 1.59341 18.4061 0.320051 19.3156 6.86874L20.589 17.4194V5.77729C20.589 -1.31712 29.6844 -1.31712 29.6844 5.77729V18.6928L31.3216 7.41446C32.2311 1.22959 41.1446 2.50295 40.235 8.68782C39.3255 15.7822 38.2341 22.6947 37.1426 29.6072C42.7818 24.15 45.5104 23.7862 50.24 29.7891C47.3295 32.5178 42.4179 36.1559 39.5074 38.7026C34.5959 52.5276 5.85444 52.5276 5.85444 33.0635ZM38.416 8.50591C39.1436 4.68584 33.6864 3.7763 33.1406 7.77828L30.9577 22.3309C29.8663 22.3309 28.9568 22.3309 27.8653 22.3309V5.77729C27.8653 1.22959 22.4081 1.22959 22.4081 5.77729V22.149C21.4985 22.149 20.4071 22.149 19.4975 22.3309L17.4965 7.23255C16.9508 3.04867 11.4936 3.7763 12.0393 7.96019L14.2222 23.4224C13.1308 23.7862 12.2212 23.9681 11.1298 24.15L7.85543 11.2345C6.94589 7.59637 1.67055 8.86973 2.762 12.6898L7.67352 32.5178C8.21924 51.8 34.7778 49.6171 38.0522 37.0655C38.0522 36.8836 46.9656 30.3349 47.6933 29.6072C43.1456 23.6043 39.3255 30.6987 34.414 34.3368C31.1396 33.7911 28.5929 36.1559 28.411 39.6122C28.411 40.8855 26.5919 40.8855 26.5919 39.6122C26.7739 34.7007 29.8663 32.6997 33.8683 32.3359C34.0502 32.3359 34.414 31.7901 35.1416 31.2444C36.2331 23.7862 37.3245 16.146 38.416 8.50591Z" fill="#EE58B6"/>
</svg>
