<svg width="41" height="49" viewBox="0 0 41 49" fill="none" xmlns="http://www.w3.org/2000/svg">
<path d="M40.4423 33.9723C40.4423 53.0722 6.0624 53.7998 6.0624 33.0628L1.15099 13.0533C-0.304245 6.8686 8.42715 4.68575 9.88238 10.8705L12.0652 19.2381L10.4281 8.14193C9.70048 1.59338 18.6138 0.320054 19.5233 6.8686L20.7966 17.419V5.77717C20.7966 -1.31708 29.8918 -1.31708 29.8918 5.77717V18.6924L31.529 7.41431C32.4385 1.22957 41.3518 2.5029 40.4423 8.68764L38.2594 23.6038C41.3518 25.2409 40.4423 31.0618 40.4423 33.9723ZM7.88144 32.5171C8.42715 52.1627 38.6232 50.1618 38.6232 33.9723C38.6232 22.8762 39.8965 25.059 26.0718 25.059C26.0718 31.6075 26.2537 29.7885 33.348 30.5161C34.8032 30.5161 34.2575 32.699 34.2575 33.4266C34.2575 35.6094 28.8004 33.0628 28.6185 39.7932C28.4366 40.8847 26.7995 40.8847 26.7995 39.6113C26.9814 35.9732 28.8004 33.4266 32.4385 32.699V32.3352C23.5252 32.3352 24.2528 31.0618 24.2528 23.24C28.4366 23.24 32.4385 23.0581 36.4404 23.24L38.6232 8.50573C39.3508 4.68575 33.8937 3.77623 33.348 7.77812L31.1651 22.3304C30.0737 22.3304 29.1642 22.3304 28.0728 22.3304V5.77717C28.0728 1.22957 22.6157 1.22957 22.6157 5.77717V22.1485C21.7061 22.1485 20.6147 22.1485 19.7052 22.3304L17.7043 7.23241C17.1585 3.04861 11.7014 3.77623 12.2471 7.96002L14.43 23.4219C13.3386 23.7857 12.429 23.9676 11.3376 24.1495L8.06334 11.2343C7.15382 7.59621 1.8786 8.86954 2.97003 12.6895L7.88144 32.5171Z" fill="#EE58B6"/>
</svg>
