<svg width="39" height="49" viewBox="0 0 39 49" fill="none" xmlns="http://www.w3.org/2000/svg">
<path d="M34.1321 5.74479V21.6304C35.3088 21.8265 36.2894 22.2187 36.8777 22.8071C38.6428 24.9644 38.0544 30.848 38.0544 33.0053C38.0544 53.7938 0.988037 53.7938 0.988037 33.0053C0.988037 28.2984 0.988037 23.3955 0.988037 18.4925C0.988037 14.9624 7.26383 14.1779 9.81337 16.5313C11.5784 14.7662 15.5008 14.7662 17.462 16.3352C19.0309 14.7662 22.1688 14.5701 24.3261 15.5507V5.74479C24.3261 -1.11936 34.1321 -1.11936 34.1321 5.74479ZM32.1709 21.2382V5.74479C32.1709 1.6263 26.2873 1.6263 26.2873 5.74479V21.2382C28.2485 21.2382 30.4058 21.2382 32.1709 21.2382ZM24.3261 21.2382V18.2964C24.3261 16.5313 18.6387 16.5313 18.4426 18.2964C18.6387 23.7877 18.6387 27.7101 18.6387 31.6324C18.8348 33.2014 24.3261 33.7897 24.3261 31.0441C19.6193 29.8674 20.5999 25.7489 20.5999 21.4343C21.3844 21.4343 22.7572 21.4343 24.3261 21.2382ZM26.2873 31.2402C26.2873 35.1626 20.2076 35.7509 17.6581 33.7897C15.893 35.5548 11.5784 35.5548 9.81337 33.7897C8.24442 35.1626 5.10652 35.5548 3.14534 34.5742C4.71429 51.2443 36.0932 50.6559 36.0932 33.0053C36.0932 31.6324 36.4855 25.3566 35.3088 24.1799C34.1321 22.8071 24.3261 23.3955 22.5611 23.3955C22.5611 25.945 21.9727 29.0829 25.3067 29.279H30.4058C32.5631 29.279 32.5631 33.5936 30.6019 33.5936C27.0718 33.7897 25.3067 35.7509 25.1106 39.2811C25.1106 40.4578 23.1494 40.4578 23.3455 39.2811C23.3455 35.1626 25.5028 32.4169 29.4252 31.6324V31.2402H26.2873ZM2.94922 32.0247C3.34146 33.5936 8.83278 33.5936 8.83278 31.8285V18.4925C8.83278 16.9235 2.94922 16.7274 2.94922 18.4925C2.94922 23.0032 2.94922 27.5139 2.94922 32.0247ZM16.6775 31.8285C16.4814 28.8868 16.4814 22.611 16.4814 18.4925C16.2853 16.7274 10.794 16.7274 10.794 18.4925V31.8285C10.794 33.5936 16.4814 33.5936 16.6775 31.8285Z" fill="#EE58B6"/>
</svg>
