<svg width="36" height="49" viewBox="0 0 36 49" fill="none" xmlns="http://www.w3.org/2000/svg">
<path d="M35.735 33.9723C35.735 53.0722 1.53704 53.7998 1.53704 33.0628C0.627516 29.4247 -0.463908 27.2418 1.90084 24.6952C3.53798 23.0581 4.99321 21.9666 7.72177 22.3304C7.17606 17.7828 6.44844 12.8714 5.90273 8.14193C4.99321 1.59338 13.9065 0.320054 14.816 6.8686L16.2713 17.419V5.77717C16.2713 -1.31708 25.1846 -1.31708 25.1846 5.77717V18.6924L27.0036 7.41431C27.9131 1.22957 36.8264 2.5029 35.9169 8.68764L33.5521 23.6038C36.8264 25.2409 35.735 31.0618 35.735 33.9723ZM7.17606 23.9676C5.53892 23.6038 1.90084 26.878 2.26465 28.3333L15.1798 30.5161C19.1817 31.2437 20.0912 25.9685 16.0894 25.2409L7.17606 23.9676ZM2.81036 30.3342L3.35608 32.5171C3.90179 52.1627 33.916 50.1618 33.916 33.9723C33.916 22.8762 35.1893 25.059 21.5465 25.059C21.5465 31.6075 21.7284 29.7885 28.8226 30.5161C30.096 30.5161 29.7322 32.699 29.7322 33.4266C29.7322 35.6094 24.275 33.0628 23.9112 39.7932C23.9112 40.8847 22.0922 40.8847 22.0922 39.6113C22.2741 35.9732 24.0931 33.4266 27.9131 32.699V32.3352C22.6379 32.3352 20.637 31.7894 20.0912 29.7885C19.3636 31.6075 17.5446 32.8809 14.9979 32.3352L2.81036 30.3342ZM19.7274 25.4228C19.7274 24.6952 19.7274 23.9676 19.7274 23.24C23.7293 23.24 27.9131 23.0581 31.915 23.24L34.0979 8.50573C34.6436 4.68575 29.3684 3.77623 28.8226 7.77812L26.6398 22.3304C25.5484 22.3304 24.4569 22.3304 23.3655 22.3304V5.77717C23.3655 1.22957 18.0903 1.22957 18.0903 5.77717V22.1485C16.9989 22.1485 16.0894 22.1485 14.9979 22.3304L12.997 7.23241C12.4513 3.04861 7.17606 3.77623 7.72177 7.96002C8.26748 12.6895 8.9951 17.6009 9.72272 22.5123C14.9979 23.24 19.1817 23.0581 19.7274 25.4228Z" fill="#EE58B6"/>
</svg>
