<svg width="46" height="49" viewBox="0 0 46 49" fill="none" xmlns="http://www.w3.org/2000/svg">
<path d="M29.2108 34.4987C26.0795 33.7619 23.3166 36.3406 23.1324 39.8403C23.1324 41.1297 21.2904 40.9455 21.4746 39.8403C21.6588 34.6829 24.7901 32.841 28.8424 32.4726C28.8424 32.4726 29.395 31.92 30.1317 31.3674L33.6314 8.89575C34.184 4.84348 28.8424 4.4751 28.1056 7.97478L26.0795 21.6051C27.0004 21.7893 27.7372 22.1577 28.6582 22.3419C29.395 22.7103 28.6582 24.368 27.9214 24.1838C25.3427 23.0787 22.5798 22.7103 19.8169 22.7103C18.8959 22.8945 18.7117 20.8684 19.6327 20.8684C20.7378 20.8684 21.6588 20.8684 22.764 21.0526C22.764 15.7109 22.0272 9.81672 21.843 4.65929C21.6588 1.52799 16.133 1.89638 16.3172 5.02768L17.054 20.5V32.841C17.054 36.3406 10.7914 36.709 8.76523 34.6829C7.29168 36.1565 4.16038 36.1565 2.50264 35.4197C3.97619 49.971 29.2108 50.5236 32.8946 37.4458C33.0788 37.2616 42.1043 30.6306 42.8411 29.8939C38.2363 23.6313 34.3682 30.999 29.2108 34.4987ZM32.1579 29.7097C38.0521 24.368 40.815 23.9997 45.4198 30.0781C42.2885 32.841 37.3153 36.3406 34.3682 38.9194C29.0266 53.2865 0.476501 51.6287 0.476501 34.1303C0.476501 29.5255 0.476501 24.9206 0.476501 20.5C0.476501 16.8161 6.5549 16.4477 8.76523 18.4738C10.2388 17.0003 13.3701 17.0003 15.212 17.9213L14.4752 5.02768C14.1069 -0.49814 23.3166 -1.05072 23.6849 4.4751L24.4217 19.9474L26.4479 7.79059C27.3688 1.89638 36.3943 2.63316 35.4734 9.26414L32.1579 29.7097ZM2.31844 33.0252C2.68683 34.4987 7.84426 34.4987 7.84426 32.841V20.5C7.84426 18.658 2.31844 18.658 2.31844 20.5C2.31844 24.5522 2.31844 28.7887 2.31844 33.0252ZM15.212 32.841V20.5C15.212 18.658 9.6862 18.658 9.6862 20.5V32.841C9.6862 34.4987 15.212 34.4987 15.212 32.841Z" fill="#EE58B6"/>
</svg>
